<svg width="148" height="52" viewBox="0 0 148 52" fill="none" xmlns="http://www.w3.org/2000/svg">
<path d="M10.4892 21.307C10.7799 21.307 11.0587 21.1701 11.2643 20.9263C11.4698 20.6825 11.5853 20.3518 11.5853 20.007C11.5853 19.6623 11.4698 19.3316 11.2643 19.0878C11.0587 18.844 10.7799 18.707 10.4892 18.707C10.1985 18.707 9.91972 18.844 9.71416 19.0878C9.50861 19.3316 9.39313 19.6623 9.39313 20.007C9.39313 20.3518 9.50861 20.6825 9.71416 20.9263C9.91972 21.1701 10.1985 21.307 10.4892 21.307ZM13.5506 16.8792C13.5506 17.0516 13.4928 17.217 13.39 17.3389C13.2873 17.4608 13.1479 17.5292 13.0025 17.5292C12.8572 17.5292 12.7178 17.4608 12.615 17.3389C12.5122 17.217 12.4545 17.0516 12.4545 16.8792C12.4545 16.7069 12.5122 16.5415 12.615 16.4196C12.7178 16.2977 12.8572 16.2292 13.0025 16.2292C13.1479 16.2292 13.2873 16.2977 13.39 16.4196C13.4928 16.5415 13.5506 16.7069 13.5506 16.8792ZM12.7548 19.357C12.9002 19.357 13.0395 19.2886 13.1423 19.1667C13.2451 19.0448 13.3028 18.8794 13.3028 18.707C13.3028 18.5347 13.2451 18.3693 13.1423 18.2474C13.0395 18.1255 12.9002 18.057 12.7548 18.057C12.6095 18.057 12.4701 18.1255 12.3673 18.2474C12.2645 18.3693 12.2068 18.5347 12.2068 18.707C12.2068 18.8794 12.2645 19.0448 12.3673 19.1667C12.4701 19.2886 12.6095 19.357 12.7548 19.357ZM15.7263 15.7001C15.7263 15.8196 15.7064 15.938 15.6679 16.0484C15.6293 16.1588 15.5728 16.2591 15.5016 16.3436C15.4303 16.4281 15.3457 16.4951 15.2526 16.5409C15.1595 16.5866 15.0598 16.6101 14.959 16.6101C14.8583 16.6101 14.7585 16.5866 14.6654 16.5409C14.5723 16.4951 14.4877 16.4281 14.4165 16.3436C14.3452 16.2591 14.2887 16.1588 14.2502 16.0484C14.2116 15.938 14.1918 15.8196 14.1918 15.7001C14.1918 15.4588 14.2726 15.2273 14.4165 15.0567C14.5604 14.886 14.7555 14.7901 14.959 14.7901C15.1625 14.7901 15.3577 14.886 15.5016 15.0567C15.6454 15.2273 15.7263 15.4588 15.7263 15.7001ZM31.1492 36.2674C31.1492 36.6122 31.0337 36.9429 30.8282 37.1867C30.6226 37.4305 30.3438 37.5674 30.0531 37.5674C29.7624 37.5674 29.4836 37.4305 29.2781 37.1867C29.0725 36.9429 28.957 36.6122 28.957 36.2674C28.957 35.9227 29.0725 35.592 29.2781 35.3482C29.4836 35.1044 29.7624 34.9674 30.0531 34.9674C30.3438 34.9674 30.6226 35.1044 30.8282 35.3482C31.0337 35.592 31.1492 35.9227 31.1492 36.2674ZM28.4594 35.3158C28.5911 35.3158 28.7174 35.2538 28.8105 35.1434C28.9036 35.0329 28.9559 34.8831 28.9559 34.7269C28.9559 34.5708 28.9036 34.421 28.8105 34.3105C28.7174 34.2001 28.5911 34.138 28.4594 34.138C28.3277 34.138 28.2014 34.2001 28.1083 34.3105C28.0152 34.421 27.9629 34.5708 27.9629 34.7269C27.9629 34.8831 28.0152 35.0329 28.1083 35.1434C28.2014 35.2538 28.3277 35.3158 28.4594 35.3158ZM25.5099 32.5507C25.5099 32.6271 25.4972 32.7026 25.4726 32.7731C25.448 32.8436 25.4119 32.9077 25.3664 32.9616C25.3209 33.0156 25.2669 33.0584 25.2074 33.0876C25.148 33.1168 25.0843 33.1318 25.0199 33.1318C24.9556 33.1318 24.8919 33.1168 24.8324 33.0876C24.773 33.0584 24.719 33.0156 24.6735 32.9616C24.628 32.9077 24.5919 32.8436 24.5673 32.7731C24.5427 32.7026 24.53 32.6271 24.53 32.5507C24.53 32.3966 24.5816 32.2488 24.6735 32.1398C24.7654 32.0309 24.89 31.9696 25.0199 31.9696C25.1499 31.9696 25.2745 32.0309 25.3664 32.1398C25.4583 32.2488 25.5099 32.3966 25.5099 32.5507ZM26.652 34.7256C26.8752 34.7256 27.0894 34.6205 27.2472 34.4332C27.4051 34.246 27.4938 33.992 27.4938 33.7272C27.4938 33.4624 27.4051 33.2085 27.2472 33.0213C27.0894 32.834 26.8752 32.7288 26.652 32.7288C26.4287 32.7288 26.2146 32.834 26.0568 33.0213C25.8989 33.2085 25.8102 33.4624 25.8102 33.7272C25.8102 33.992 25.8989 34.246 26.0568 34.4332C26.2146 34.6205 26.4287 34.7256 26.652 34.7256ZM28.8266 16.9988C28.8266 17.3436 28.7111 17.6743 28.5056 17.9181C28.3 18.1619 28.0212 18.2988 27.7305 18.2988C27.4398 18.2988 27.161 18.1619 26.9555 17.9181C26.7499 17.6743 26.6345 17.3436 26.6345 16.9988C26.6345 16.6541 26.7499 16.3234 26.9555 16.0796C27.161 15.8358 27.4398 15.6988 27.7305 15.6988C28.0212 15.6988 28.3 15.8358 28.5056 16.0796C28.7111 16.3234 28.8266 16.6541 28.8266 16.9988ZM26.0864 15.0748C26.2318 15.0748 26.3712 15.0064 26.4739 14.8845C26.5767 14.7626 26.6345 14.5972 26.6345 14.4248C26.6345 14.2525 26.5767 14.0871 26.4739 13.9652C26.3712 13.8433 26.2318 13.7748 26.0864 13.7748C25.9411 13.7748 25.8017 13.8433 25.6989 13.9652C25.5961 14.0871 25.5384 14.2525 25.5384 14.4248C25.5384 14.5972 25.5961 14.7626 25.6989 14.8845C25.8017 15.0064 25.9411 15.0748 26.0864 15.0748ZM29.459 20.215C29.459 20.4564 29.3782 20.6879 29.2343 20.8585C29.0904 21.0292 28.8953 21.125 28.6918 21.125C28.4883 21.125 28.2932 21.0292 28.1493 20.8585C28.0054 20.6879 27.9245 20.4564 27.9245 20.215C27.9245 19.9737 28.0054 19.7422 28.1493 19.5716C28.2932 19.4009 28.4883 19.305 28.6918 19.305C28.8953 19.305 29.0904 19.4009 29.2343 19.5716C29.3782 19.7422 29.459 19.9737 29.459 20.215ZM15.8468 37.726C15.8468 38.0708 15.7314 38.4015 15.5258 38.6453C15.3203 38.8891 15.0415 39.026 14.7508 39.026C14.4601 39.026 14.1813 38.8891 13.9757 38.6453C13.7702 38.4015 13.6547 38.0708 13.6547 37.726C13.6547 37.3813 13.7702 37.0506 13.9757 36.8068C14.1813 36.563 14.4601 36.426 14.7508 36.426C15.0415 36.426 15.3203 36.563 15.5258 36.8068C15.7314 37.0506 15.8468 37.3813 15.8468 37.726ZM14.6576 35.2599C14.7893 35.2599 14.9156 35.1979 15.0087 35.0875C15.1018 34.977 15.1541 34.8272 15.1541 34.671C15.1541 34.5149 15.1018 34.3651 15.0087 34.2546C14.9156 34.1442 14.7893 34.0821 14.6576 34.0821C14.5259 34.0821 14.3996 34.1442 14.3065 34.2546C14.2134 34.3651 14.1611 34.5149 14.1611 34.671C14.1611 34.8272 14.2134 34.977 14.3065 35.0875C14.3996 35.1979 14.5259 35.2599 14.6576 35.2599ZM13.3368 33.3151C13.3368 33.4875 13.2791 33.6529 13.1763 33.7748C13.0735 33.8967 12.9341 33.9651 12.7888 33.9651C12.6434 33.9651 12.504 33.8967 12.4013 33.7748C12.2985 33.6529 12.2407 33.4875 12.2407 33.3151C12.2407 33.1428 12.2985 32.9774 12.4013 32.8555C12.504 32.7336 12.6434 32.6651 12.7888 32.6651C12.9341 32.6651 13.0735 32.7336 13.1763 32.8555C13.2791 32.9774 13.3368 33.1428 13.3368 33.3151ZM16.2962 41.3868C16.4997 41.3868 16.6949 41.291 16.8388 41.1203C16.9827 40.9496 17.0635 40.7182 17.0635 40.4768C17.0635 40.2355 16.9827 40.004 16.8388 39.8334C16.6949 39.6627 16.4997 39.5668 16.2962 39.5668C16.0927 39.5668 15.8976 39.6627 15.7537 39.8334C15.6098 40.004 15.529 40.2355 15.529 40.4768C15.529 40.7182 15.6098 40.9496 15.7537 41.1203C15.8976 41.291 16.0927 41.3868 16.2962 41.3868Z" fill="#077A7D"/>
<path fill-rule="evenodd" clip-rule="evenodd" d="M21.9216 52C34.0289 52 43.8432 40.3598 43.8432 26C43.8432 11.6402 34.0289 0 21.9216 0C9.81429 0 0 11.6402 0 26C0 40.3598 9.81429 52 21.9216 52ZM6.23998 23.8004C7.53335 25.7855 11.3115 24.8937 14.6776 21.8075C18.0437 18.7213 19.7261 14.6107 18.4328 12.6256C17.1394 10.6405 13.3601 11.5336 9.99295 14.6185C6.62799 17.7047 4.9466 21.8153 6.23998 23.8004ZM30.0183 31.005C33.6211 33.5842 35.6642 37.3984 34.5835 39.5213C33.5017 41.6455 29.7048 41.2763 26.102 38.6971C22.5003 36.1166 20.4572 32.3037 21.538 30.1795C22.6187 28.0553 26.4155 28.4245 30.0183 31.005ZM31.1352 15.6026C32.9383 20.1773 32.8473 24.7468 30.9292 25.8102C29.011 26.8736 25.9968 24.0292 24.1916 19.4545C22.3874 14.8811 22.4795 10.3116 24.3965 9.2469C26.3147 8.1835 29.3311 11.0279 31.1352 15.6026ZM18.1598 35.0129C20.1152 39.6279 20.1328 44.3027 18.1982 45.4558C16.2647 46.6089 13.1124 43.8035 11.1559 39.1898C9.20049 34.5748 9.18295 29.9013 11.1164 28.7482C13.0499 27.5951 16.2044 30.3979 18.1598 35.0129Z" fill="#077A7D"/>
<path d="M138.574 22.165H140.3V2.21H136.847V6.045H134.874V0H148V6.045H146V2.21H142.547V22.165H144.328V24.375H138.574V22.165Z" fill="#06202B"/>
<path d="M130.945 18.3625H132.809V24.375H124.396C122.862 24.375 121.93 23.66 121.601 22.23C121.492 21.8183 121.437 21.3742 121.437 20.8975V3.51C121.437 1.92833 121.903 0.866668 122.834 0.325002C123.181 0.108334 123.611 0 124.122 0H132.809V6.0125H130.945V2.21H123.684V22.165H130.945V18.3625Z" fill="#06202B"/>
<path d="M116.663 8.3525V15.1775H114.8V12.87H110.936V22.165H117.951V18.3625H119.815V24.375H106.963V22.165H108.689V2.21H106.963V0H119.815V6.0125H117.951V2.21H110.936V10.66H114.8V8.3525H116.663Z" fill="#06202B"/>
<path d="M103.394 2.21H101.613V20.5725C101.613 22.2842 101.11 23.4433 100.105 24.05C99.7219 24.2667 99.2469 24.375 98.6806 24.375H94.5977V22.165H99.3656V2.21H97.6119V0H103.394V2.21Z" fill="#06202B"/>
<path d="M89.2272 0C90.3415 0 91.1453 0.368333 91.6386 1.105C92.1501 1.82 92.4058 2.8925 92.4058 4.3225V19.955C92.4058 21.515 92.1866 22.6417 91.7482 23.335C91.3097 24.0283 90.5151 24.375 89.3642 24.375H84.103C82.3493 24.375 81.3172 23.595 81.0066 22.035C80.897 21.5583 80.8422 21.0275 80.8422 20.4425V4.3225C80.8422 2.87083 81.0431 1.82 81.445 1.17C81.9017 0.390001 82.7147 0 83.8838 0H89.2272ZM83.0343 22.165H90.2137V2.21H83.0343V22.165Z" fill="#06202B"/>
<path d="M78.7739 22.165V24.375H73.3483V22.165H74.828L70.1423 13.2275L67.2377 15.34V22.165H69.0188V24.375H63.2644V22.165H64.9907V2.21H63.2644V0H73.0469C74.2526 0 75.0655 0.281667 75.4857 0.845001C75.9058 1.38667 76.1159 2.45917 76.1159 4.0625V6.0775C76.1159 6.90084 76.052 7.55083 75.9241 8.0275C75.7962 8.50417 75.5679 8.9375 75.239 9.3275C74.9102 9.69584 74.4718 10.075 73.9237 10.465C73.3757 10.855 72.6815 11.3533 71.8412 11.96L77.2394 22.165H78.7739ZM67.2377 12.74L74.1156 7.7025V2.21H67.2377V12.74Z" fill="#06202B"/>
<path d="M56.777 0C57.9827 0 58.7956 0.270834 59.2157 0.812501C59.6359 1.35417 59.846 2.42667 59.846 4.03V6.4025C59.846 7.6375 59.6268 8.53667 59.1883 9.1C58.9691 9.38167 58.6768 9.6525 58.3115 9.9125C57.9644 10.1725 57.5351 10.4867 57.0236 10.855L50.9677 15.34V22.165H52.7489V24.375H46.9945V22.165H48.7208V2.2425H46.9945V0H56.777ZM57.8456 2.2425H50.9677V12.74L57.8456 7.7025V2.2425Z" fill="#06202B"/>
<path d="M119.089 40.169H113.84L109.045 49.0029C109.02 49.0476 109.006 49.0996 109.004 49.1531C109.003 49.2066 109.013 49.2596 109.034 49.3066C109.077 49.3949 109.154 49.4528 109.244 49.4539H123.686C123.728 49.4542 123.77 49.4406 123.807 49.4147C123.844 49.3888 123.874 49.3514 123.895 49.3066C123.917 49.26 123.929 49.2059 123.927 49.1523C123.925 49.0988 123.91 49.047 123.885 49.0029L119.089 40.169Z" fill="#077A7D"/>
<path d="M125.668 47.6125L119.434 36.1248V30.6333H120.882V27.625H112.039V30.6363H113.499V36.1278L107.254 47.6125C107.02 48.0403 106.888 48.5357 106.87 49.0464C106.852 49.5571 106.95 50.064 107.153 50.5136C107.356 50.9632 107.657 51.3386 108.023 51.6003C108.39 51.8619 108.809 52 109.235 52H123.679C124.106 51.9992 124.526 51.8602 124.893 51.5976C125.26 51.335 125.561 50.9585 125.764 50.508C125.967 50.0575 126.065 49.5497 126.047 49.038C126.029 48.5264 125.896 48.0301 125.663 47.6013L125.668 47.6125ZM124.9 49.9505C124.782 50.2129 124.606 50.432 124.392 50.5847C124.178 50.7374 123.934 50.8179 123.685 50.8178H109.235C108.985 50.8182 108.74 50.7376 108.525 50.5844C108.31 50.4312 108.133 50.2112 108.014 49.9477C107.895 49.6842 107.838 49.387 107.848 49.0877C107.859 48.7883 107.937 48.4979 108.074 48.2473L108.07 48.2534L114.471 36.4721V30.6313H118.444V36.4752L124.839 48.2564C124.983 48.5113 125.069 48.8262 125.069 49.1654C125.069 49.4548 125.006 49.727 124.896 49.9627L124.9 49.9545L124.9 49.9505Z" fill="#06202B"/>
<path d="M102.388 49.79H104.169V52H98.4148V49.79H100.141V29.835H98.4148V27.625H104.169V29.835H102.388V49.79Z" fill="#077A7D"/>
<path d="M91.7018 35.9775V42.8025H89.8385V40.495H85.9748V49.79H92.9897V45.9875H94.853V52H82.0015V49.79H83.7278V29.835H82.0015V27.625H94.853V33.6375H92.9897V29.835H85.9748V38.285H89.8385V35.9775H91.7018Z" fill="#077A7D"/>
<path d="M76.7063 29.835V49.79H78.4326V52H72.7878V49.79H74.4593V40.495H66.8416V49.79H68.5131V52H62.8683V49.79H64.5946V29.835H62.8683V27.625H68.5131V29.835H66.8416V38.3175H74.4593V29.835H72.7878V27.625H78.4326V29.835H76.7063Z" fill="#077A7D"/>
<path d="M50.9677 49.79H52.694V29.835H49.2413V33.67H47.2684V27.625H60.394V33.67H58.3936V29.835H54.941V49.79H56.7221V52H50.9677V49.79Z" fill="#077A7D"/>
</svg>
